<svg width="379" height="92" viewBox="0 0 379 92" fill="none" xmlns="http://www.w3.org/2000/svg">
<path d="M58.4225 14.0772C58.9248 13.0848 58.5226 11.8685 57.5024 11.4254C50.3085 8.30084 42.342 7.27878 34.5532 8.50381C26.0967 9.83384 18.274 13.7459 12.1829 19.6911C6.09173 25.6363 2.03789 33.3162 0.590212 41.653C-0.857463 49.9898 0.373688 58.5652 4.1109 66.1757C7.84811 73.7862 13.9038 80.0498 21.4282 84.0876C28.9525 88.1254 37.5679 89.7347 46.0654 88.6897C54.5628 87.6447 62.5157 83.9978 68.8081 78.2608C74.6015 72.9788 78.7196 66.1691 80.6896 58.6575C80.9708 57.5854 80.2674 56.521 79.1815 56.2991L63.4629 53.0884C62.3844 52.8681 61.3401 53.5648 61.0111 54.6153C59.9242 58.086 57.9271 61.2249 55.2071 63.7048C51.9923 66.6358 47.9292 68.499 43.5879 69.0329C39.2466 69.5668 34.845 68.7446 31.0008 66.6816C27.1566 64.6187 24.0628 61.4187 22.1534 57.5305C20.2441 53.6423 19.6151 49.2612 20.3547 45.0019C21.0943 40.7426 23.1654 36.819 26.2774 33.7816C29.3893 30.7442 33.3859 28.7455 37.7063 28.066C41.3713 27.4896 45.1132 27.887 48.5528 29.2005C49.5775 29.5918 50.7661 29.2044 51.2615 28.2257L58.4225 14.0772Z" fill="#2A4B8D"/>
<path d="M59.3346 12.2751C54.1636 9.72133 48.5042 8.27667 42.728 8.03599C36.9518 7.7953 31.1894 8.76401 25.819 10.8786C20.4486 12.9931 15.5916 16.2056 11.5669 20.3053C7.54212 24.405 4.4406 29.2992 2.46589 34.6665C0.49118 40.0339 -0.312074 45.7531 0.108854 51.4487C0.529781 57.1444 2.16537 62.6877 4.90827 67.7149C7.65117 72.742 11.4394 77.1394 16.0242 80.6182C20.609 84.097 25.8868 86.5787 31.5112 87.9004L36.1322 68.7125C33.2469 68.0345 30.5394 66.7614 28.1873 64.9767C25.8353 63.1921 23.892 60.9362 22.4848 58.3573C21.0777 55.7783 20.2387 52.9346 20.0227 50.0127C19.8068 47.0908 20.2189 44.1568 21.2319 41.4034C22.2449 38.6499 23.836 36.1392 25.9007 34.036C27.9654 31.9329 30.4571 30.2848 33.2121 29.2001C35.9672 28.1153 38.9233 27.6184 41.8865 27.7418C44.8497 27.8653 47.753 28.6064 50.4057 29.9165L59.3346 12.2751Z" fill="#F29F05"/>
<path d="M59.3346 12.2751C52.8901 9.09243 45.7104 7.64349 38.5186 8.07424C31.3268 8.505 24.3769 10.8002 18.3689 14.7288L29.3142 31.0619C32.4165 29.0333 36.0051 27.8482 39.7187 27.6258C43.4323 27.4033 47.1396 28.1515 50.4673 29.7949L59.3346 12.2751Z" fill="#36B7B2"/>
<path d="M53.7284 2.47861C54.0796 0.97962 55.9219 0.423009 57.0444 1.47671L83.0197 25.8592C84.1422 26.9129 83.7031 28.7866 82.2293 29.2319L48.1259 39.5359C46.6521 39.9812 45.2489 38.6641 45.6002 37.1651L53.7284 2.47861Z" fill="#36B7B2"/>
<path d="M171 36.29H178.721V43.952H171V36.29ZM171 56.1451H178.721V63.8071H171V56.1451Z" fill="#36B7B2"/>
<path d="M96 22.0343L96.9687 13H112.274C114.986 13 117.181 13.8419 118.86 15.5257C120.539 17.1448 121.379 19.3143 121.379 22.0343V52.44C121.379 53.8648 121.088 55.16 120.507 56.3257C119.926 57.4267 119.151 58.3657 118.182 59.1429L124.382 81H115.083L109.561 61.4743H106.655V81H97.453V22.0343H96ZM111.692 22.0343H106.655V52.44H111.692C112.015 52.44 112.177 52.2781 112.177 51.9543V22.52C112.177 22.1962 112.015 22.0343 111.692 22.0343Z" fill="#36B7B2"/>
<path d="M157 71.9657L156.225 81H135.011V22.0343H133.558L134.527 13H157L156.031 22.0343H144.214V42.4343H155.063L154.094 51.4686H144.214V71.9657H157Z" fill="#36B7B2"/>
<path d="M219.756 71.6307C219.756 74.3352 218.913 76.5246 217.227 78.1989C215.54 79.8087 213.335 80.6136 210.611 80.6136H194.459V21.9829H193L193.973 13H210.611C213.335 13 215.54 13.8371 217.227 15.5114C218.913 17.1212 219.756 19.2784 219.756 21.9829V71.6307ZM210.027 21.9829H203.703V71.6307H210.027C210.351 71.6307 210.513 71.4697 210.513 71.1477V22.4659C210.513 22.1439 210.351 21.9829 210.027 21.9829Z" fill="#36B7B2"/>
<path d="M241.142 19.4716L242.115 28.4546H232.872V19.4716H241.142ZM242.115 32.3182V80.6136H232.872V41.3011H231.413L232.386 32.3182H242.115Z" fill="#36B7B2"/>
<path d="M265.335 32.3182V36.5682L267.962 32.3182H274.481V41.6875H265.335V80.6136H256.092V41.3011H253.757L254.73 32.3182H265.335Z" fill="#36B7B2"/>
<path d="M286.195 72.017V40.9148C286.195 38.2102 287.038 36.053 288.725 34.4432C290.411 32.7689 292.617 31.9318 295.341 31.9318H301.373C304.097 31.9318 306.303 32.7689 307.989 34.4432C309.676 36.053 310.519 38.2102 310.519 40.9148V52.7954H301.276V41.3977C301.276 41.0758 301.114 40.9148 300.789 40.9148H295.925C295.6 40.9148 295.438 41.0758 295.438 41.3977V52.7954H310.519V61.7784H295.438V71.5341C295.438 71.8561 295.6 72.017 295.925 72.017H300.789C301.114 72.017 301.276 71.8882 301.276 71.6307V66.3182H310.519V72.017C310.519 74.7216 309.676 76.911 307.989 78.5852C306.303 80.1951 304.097 81 301.373 81H295.341C292.617 81 290.411 80.1951 288.725 78.5852C287.038 76.911 286.195 74.7216 286.195 72.017Z" fill="#36B7B2"/>
<path d="M323.171 72.017V40.9148C323.171 38.2102 324.014 36.053 325.701 34.4432C327.387 32.7689 329.593 31.9318 332.317 31.9318H339.322C342.047 31.9318 344.252 32.7689 345.938 34.4432C347.625 36.053 348.468 38.2102 348.468 40.9148V53.6648L339.225 52.6989V41.3977C339.225 41.0758 339.063 40.9148 338.739 40.9148H332.901C332.576 40.9148 332.414 41.0758 332.414 41.3977V71.5341C332.414 71.8561 332.576 72.017 332.901 72.017H338.739C339.063 72.017 339.225 71.8882 339.225 71.6307V60.4261H348.468V72.017C348.468 74.7216 347.625 76.911 345.938 78.5852C344.252 80.1951 342.047 81 339.322 81H332.317C329.593 81 327.387 80.1951 325.701 78.5852C324.014 76.911 323.171 74.7216 323.171 72.017Z" fill="#36B7B2"/>
<path d="M379 71.6307V80.6136H373.357C370.633 80.6136 368.427 79.8087 366.741 78.1989C365.054 76.5246 364.211 74.3352 364.211 71.6307V41.3011H360.125L360.903 32.3182H364.211V21.9829H361.779L362.557 13H373.454V32.3182H379L378.222 41.3011H373.454V71.6307H379Z" fill="#36B7B2"/>
</svg>
