<svg width="398" height="141" viewBox="0 0 398 141" fill="none" xmlns="http://www.w3.org/2000/svg">
<path d="M85.4244 32.1837C87.1533 28.7258 85.761 24.479 82.1266 23.161C72.5217 19.6776 62.1519 18.6704 51.987 20.2889C39.5085 22.2757 27.9653 28.1198 18.9771 37.0008C9.98901 45.8819 4.00713 57.3543 1.87092 69.8081C-0.265282 82.2619 1.55142 95.072 7.06608 106.441C12.5807 117.809 21.5166 127.166 32.6196 133.198C43.7227 139.23 56.4356 141.634 68.9745 140.073C81.5133 138.512 93.2488 133.064 102.534 124.494C110.097 117.513 115.726 108.745 118.936 99.0456C120.151 95.3754 117.678 91.6531 113.892 90.8702L93.0606 86.5626C89.2747 85.7797 85.6512 88.2905 83.8612 91.7171C82.5262 94.2727 80.7551 96.5959 78.611 98.5749C74.7391 102.149 69.8455 104.42 64.6169 105.071C59.3882 105.722 54.087 104.72 49.457 102.204C44.8271 99.6893 41.1009 95.7875 38.8013 91.0468C36.5018 86.3061 35.7442 80.9644 36.635 75.7712C37.5258 70.578 40.0202 65.7941 43.7682 62.0907C47.5162 58.3873 52.3297 55.9504 57.5331 55.1219C60.4146 54.6631 63.3356 54.7103 66.1691 55.2439C69.9683 55.9594 74.1832 54.6679 75.912 51.21L85.4244 32.1837Z" fill="#335882"/>
<path d="M88.5547 25.9226C80.9243 22.1077 72.5733 19.9496 64.0499 19.5901C55.5265 19.2305 47.0234 20.6776 39.0988 23.8364C31.1742 26.9951 24.0072 31.7941 18.0682 37.9183C12.1292 44.0426 7.5526 51.3536 4.63869 59.3715C1.72479 67.3894 0.5395 75.9329 1.16062 84.4412C1.78175 92.9495 4.19524 101.23 8.24269 108.74C12.2901 116.25 17.88 122.819 24.6454 128.015C31.4109 133.212 39.1988 136.919 47.4982 138.894L55.6613 104.58C52.2006 103.756 48.953 102.21 46.1319 100.043C43.3107 97.8763 40.9797 95.1371 39.292 92.0056C37.6042 88.8741 36.5978 85.4211 36.3388 81.8731C36.0798 78.3252 36.574 74.7626 37.7891 71.4192C39.0042 68.0757 40.9127 65.0271 43.3892 62.4733C45.8657 59.9195 48.8543 57.9184 52.1588 56.6012C55.4634 55.284 59.0091 54.6806 62.5633 54.8305C66.1175 54.9804 69.5999 55.8803 72.7817 57.4711L88.5547 25.9226Z" fill="#335882"/>
<path d="M88.5547 25.9226C79.0452 21.1682 68.4507 19.0037 57.8384 19.6472C47.2261 20.2907 36.9707 23.7194 28.1053 29.5879L47.5746 58.9996C51.2714 56.5524 55.5479 55.1227 59.9732 54.8543C64.3984 54.586 68.8163 55.4886 72.7817 57.4711L88.5547 25.9226Z" fill="#335882"/>
<path d="M80.1845 17.3352C80.5357 15.8362 82.378 15.2796 83.5005 16.3333L116.411 47.2259C117.534 48.2796 117.095 50.1534 115.621 50.5987L72.4117 63.6538C70.9379 64.0991 69.5347 62.782 69.886 61.283L80.1845 17.3352Z" fill="#335882"/>
<path d="M210 65.29H217.721V72.952H210V65.29ZM210 85.1451H217.721V92.8071H210V85.1451Z" fill="#335882"/>
<path d="M255.123 97.0088C255.123 99.3156 254.403 101.183 252.964 102.611C251.525 103.984 249.643 104.671 247.319 104.671H233.537V54.6622H232.292L233.122 47.0002H247.319C249.643 47.0002 251.525 47.7143 252.964 49.1423C254.403 50.5154 255.123 52.3554 255.123 54.6622V97.0088ZM246.821 54.6622H241.424V97.0088H246.821C247.097 97.0088 247.236 96.8715 247.236 96.5968V55.0741C247.236 54.7995 247.097 54.6622 246.821 54.6622Z" fill="#335882"/>
<path d="M273.371 52.5201L274.201 60.1821H266.314V52.5201H273.371ZM274.201 63.4775V104.671H266.314V71.1395H265.069L265.899 63.4775H274.201Z" fill="#335882"/>
<path d="M294.013 63.4775V67.1025L296.255 63.4775H301.817V71.469H294.013V104.671H286.126V71.1395H284.134L284.964 63.4775H294.013Z" fill="#335882"/>
<path d="M311.812 97.3383V70.8099C311.812 68.5031 312.532 66.6631 313.971 65.29C315.41 63.862 317.292 63.148 319.616 63.148H324.764C327.088 63.148 328.97 63.862 330.409 65.29C331.848 66.6631 332.567 68.5031 332.567 70.8099V80.9434H324.68V71.2218C324.68 70.9472 324.542 70.8099 324.265 70.8099H320.114C319.838 70.8099 319.699 70.9472 319.699 71.2218V80.9434H332.567V88.6054H319.699V96.9264C319.699 97.201 319.838 97.3383 320.114 97.3383H324.265C324.542 97.3383 324.68 97.2285 324.68 97.0088V92.4775H332.567V97.3383C332.567 99.6451 331.848 101.513 330.409 102.941C328.97 104.314 327.088 105 324.764 105H319.616C317.292 105 315.41 104.314 313.971 102.941C312.532 101.513 311.812 99.6451 311.812 97.3383Z" fill="#335882"/>
<path d="M343.363 97.3383V70.8099C343.363 68.5031 344.083 66.6631 345.522 65.29C346.961 63.862 348.842 63.148 351.167 63.148H357.144C359.469 63.148 361.351 63.862 362.79 65.29C364.229 66.6631 364.948 68.5031 364.948 70.8099V81.6849L357.061 80.861V71.2218C357.061 70.9472 356.923 70.8099 356.646 70.8099H351.665C351.388 70.8099 351.25 70.9472 351.25 71.2218V96.9264C351.25 97.201 351.388 97.3383 351.665 97.3383H356.646C356.923 97.3383 357.061 97.2285 357.061 97.0088V87.452H364.948V97.3383C364.948 99.6451 364.229 101.513 362.79 102.941C361.351 104.314 359.469 105 357.144 105H351.167C348.842 105 346.961 104.314 345.522 102.941C344.083 101.513 343.363 99.6451 343.363 97.3383Z" fill="#335882"/>
<path d="M391 97.0088V104.671H386.185C383.86 104.671 381.979 103.984 380.54 102.611C379.101 101.183 378.381 99.3156 378.381 97.0088V71.1395H374.894L375.558 63.4775H378.381V54.6622H376.306L376.97 47.0002H386.268V63.4775H391L390.336 71.1395H386.268V97.0088H391Z" fill="#335882"/>
<path d="M135 51.0343L135.969 42H151.274C153.986 42 156.181 42.8419 157.86 44.5257C159.54 46.1448 160.379 48.3143 160.379 51.0343V81.44C160.379 82.8648 160.088 84.16 159.507 85.3257C158.926 86.4267 158.151 87.3657 157.182 88.1429L163.382 110H154.083L148.561 90.4743H145.655V110H136.453V51.0343H135ZM150.692 51.0343H145.655V81.44H150.692C151.015 81.44 151.177 81.2781 151.177 80.9543V51.52C151.177 51.1962 151.015 51.0343 150.692 51.0343Z" fill="#335882"/>
<path d="M196 100.966L195.225 110H174.011V51.0343H172.558L173.527 42H196L195.031 51.0343H183.214V71.4343H194.063L193.094 80.4686H183.214V100.966H196Z" fill="#335882"/>
<path d="M207 63.29H214.721V70.952H207V63.29ZM207 83.1451H214.721V90.8071H207V83.1451Z" fill="#5A39A1"/>
<path d="M252.123 95.0088C252.123 97.3156 251.403 99.183 249.964 100.611C248.525 101.984 246.643 102.671 244.319 102.671H230.537V52.6622H229.292L230.122 45.0002H244.319C246.643 45.0002 248.525 45.7143 249.964 47.1423C251.403 48.5154 252.123 50.3554 252.123 52.6622V95.0088ZM243.821 52.6622H238.424V95.0088H243.821C244.097 95.0088 244.236 94.8715 244.236 94.5968V53.0741C244.236 52.7995 244.097 52.6622 243.821 52.6622Z" fill="#3C8CE7"/>
<path d="M270.371 50.5201L271.201 58.1821H263.314V50.5201H270.371ZM271.201 61.4775V102.671H263.314V69.1395H262.069L262.899 61.4775H271.201Z" fill="#3C8CE7"/>
<path d="M291.013 61.4775V65.1025L293.255 61.4775H298.817V69.469H291.013V102.671H283.126V69.1395H281.134L281.964 61.4775H291.013Z" fill="#3C8CE7"/>
<path d="M308.812 95.3383V68.8099C308.812 66.5031 309.532 64.6631 310.971 63.29C312.41 61.862 314.292 61.148 316.616 61.148H321.764C324.088 61.148 325.97 61.862 327.409 63.29C328.848 64.6631 329.567 66.5031 329.567 68.8099V78.9434H321.68V69.2218C321.68 68.9472 321.542 68.8099 321.265 68.8099H317.114C316.838 68.8099 316.699 68.9472 316.699 69.2218V78.9434H329.567V86.6054H316.699V94.9264C316.699 95.201 316.838 95.3383 317.114 95.3383H321.265C321.542 95.3383 321.68 95.2285 321.68 95.0088V90.4775H329.567V95.3383C329.567 97.6451 328.848 99.5126 327.409 100.941C325.97 102.314 324.088 103 321.764 103H316.616C314.292 103 312.41 102.314 310.971 100.941C309.532 99.5126 308.812 97.6451 308.812 95.3383Z" fill="#3C8CE7"/>
<path d="M340.363 95.3383V68.8099C340.363 66.5031 341.083 64.6631 342.522 63.29C343.961 61.862 345.842 61.148 348.167 61.148H354.144C356.469 61.148 358.351 61.862 359.79 63.29C361.229 64.6631 361.948 66.5031 361.948 68.8099V79.6849L354.061 78.861V69.2218C354.061 68.9472 353.923 68.8099 353.646 68.8099H348.665C348.388 68.8099 348.25 68.9472 348.25 69.2218V94.9264C348.25 95.201 348.388 95.3383 348.665 95.3383H353.646C353.923 95.3383 354.061 95.2285 354.061 95.0088V85.452H361.948V95.3383C361.948 97.6451 361.229 99.5126 359.79 100.941C358.351 102.314 356.469 103 354.144 103H348.167C345.842 103 343.961 102.314 342.522 100.941C341.083 99.5126 340.363 97.6451 340.363 95.3383Z" fill="#3C8CE7"/>
<path d="M388 95.0088V102.671H383.185C380.86 102.671 378.979 101.984 377.54 100.611C376.101 99.183 375.381 97.3156 375.381 95.0088V69.1395H371.894L372.558 61.4775H375.381V52.6622H373.306L373.97 45.0002H383.268V61.4775H388L387.336 69.1395H383.268V95.0088H388Z" fill="#3C8CE7"/>
<path d="M132 49.0343L132.969 40H148.274C150.986 40 153.181 40.8419 154.86 42.5257C156.54 44.1448 157.379 46.3143 157.379 49.0343V79.44C157.379 80.8648 157.088 82.16 156.507 83.3257C155.926 84.4267 155.151 85.3657 154.182 86.1429L160.382 108H151.083L145.561 88.4743H142.655V108H133.453V49.0343H132ZM147.692 49.0343H142.655V79.44H147.692C148.015 79.44 148.177 79.2781 148.177 78.9543V49.52C148.177 49.1962 148.015 49.0343 147.692 49.0343Z" fill="#F254A7"/>
<path d="M193 98.9657L192.225 108H171.011V49.0343H169.558L170.527 40H193L192.031 49.0343H180.214V69.4343H191.063L190.094 78.4686H180.214V98.9657H193Z" fill="#F254A7"/>
<path d="M84.4244 26.9156C86.1533 23.4577 84.761 19.2109 81.1266 17.8929C71.5217 14.4095 61.1519 13.4023 50.987 15.0208C38.5085 17.0076 26.9653 22.8516 17.9771 31.7327C8.98902 40.6138 3.00713 52.0862 0.870928 64.54C-1.26528 76.9937 0.551423 89.8038 6.06609 101.173C11.5807 112.541 20.5166 121.898 31.6196 127.93C42.7227 133.962 55.4356 136.366 67.9745 134.805C80.5133 133.244 92.2488 127.796 101.534 119.226C109.097 112.245 114.726 103.477 117.936 93.7775C119.151 90.1073 116.678 86.3849 112.892 85.6021L92.0606 81.2945C88.2747 80.5116 84.6512 83.0224 82.8612 86.449C81.5262 89.0046 79.7551 91.3278 77.611 93.3068C73.7391 96.8805 68.8455 99.1522 63.6169 99.8031C58.3882 100.454 53.087 99.4516 48.4571 96.9364C43.8271 94.4212 40.1009 90.5194 37.8013 85.7787C35.5018 81.038 34.7442 75.6962 35.635 70.5031C36.5258 65.3099 39.0202 60.526 42.7682 56.8226C46.5162 53.1192 51.3297 50.6823 56.5332 49.8538C59.4146 49.395 62.3356 49.4422 65.1691 49.9758C68.9683 50.6912 73.1832 49.3998 74.912 45.9419L84.4244 26.9156Z" fill="#3C8CE7"/>
<path d="M87.5547 20.6545C79.9243 16.8396 71.5733 14.6815 63.0499 14.3219C54.5265 13.9624 46.0234 15.4095 38.0988 18.5682C30.1742 21.727 23.0072 26.526 17.0682 32.6502C11.1292 38.7745 6.5526 46.0855 3.6387 54.1034C0.724795 62.1212 -0.460494 70.6647 0.16063 79.1731C0.781754 87.6814 3.19525 95.9622 7.2427 103.472C11.2901 110.982 16.88 117.55 23.6454 122.747C30.4109 127.944 38.1988 131.651 46.4982 133.626L54.6614 99.3115C51.2006 98.4882 47.953 96.9423 45.1319 94.7752C42.3107 92.6082 39.9798 89.869 38.292 86.7375C36.6042 83.606 35.5978 80.1529 35.3388 76.605C35.0798 73.0571 35.5741 69.4945 36.7891 66.151C38.0042 62.8076 39.9127 59.759 42.3892 57.2052C44.8657 54.6514 47.8543 52.6503 51.1588 51.3331C54.4634 50.0159 58.0091 49.4125 61.5633 49.5624C65.1175 49.7123 68.5999 50.6122 71.7817 52.203L87.5547 20.6545Z" fill="#5A39A1"/>
<path d="M87.5547 20.6545C78.0452 15.9001 67.4507 13.7356 56.8384 14.3791C46.2261 15.0226 35.9707 18.4513 27.1053 24.3198L46.5746 53.7314C50.2714 51.2843 54.5479 49.8545 58.9732 49.5862C63.3985 49.3179 67.8163 50.2205 71.7817 52.203L87.5547 20.6545Z" fill="#F254A7"/>
<path d="M79.1845 12.0671C79.5357 10.5681 81.378 10.0115 82.5005 11.0652L115.411 41.9578C116.534 43.0115 116.095 44.8853 114.621 45.3306L71.4117 58.3857C69.9379 58.831 68.5347 57.5139 68.886 56.0149L79.1845 12.0671Z" fill="#F254A7"/>
</svg>
